
<svg xmlns="http://www.w3.org/2000/svg" version="1.1" xmlns:xlink="http://www.w3.org/1999/xlink" preserveAspectRatio="none" x="0px" y="0px" width="256px" height="256px" viewBox="0 0 256 256">
<defs>
<g id="Layer1_0_FILL">
<path fill="#FFFFFF" stroke="none" d="
M 14.8 138.55
L 0 138.55
Q 3.4 184.95 37.25 218.75 71.05 252.6 117.45 256
L 117.45 241.2
Q 77.072265625 237.8666015625 47.65 208.4 18.165625 178.9599609375 14.8 138.55
M 117.45 14.85
L 117.45 0
Q 71.05 3.4 37.25 37.25 3.4 71.05 0 117.45
L 14.8 117.45
Q 18.2015625 77.0984375 47.65 47.65 77.072265625 18.227734375 117.45 14.85
M 208.4 47.65
Q 237.8041015625 77.0984375 241.15 117.45
L 256 117.45
Q 252.6 71.05 218.75 37.25 184.95 3.4 138.55 0
L 138.55 14.85
Q 178.9333984375 18.227734375 208.4 47.65
M 256 138.55
L 241.15 138.55
Q 237.8400390625 178.9599609375 208.4 208.4 178.9333984375 237.8666015625 138.55 241.2
L 138.55 256
Q 184.95 252.6 218.75 218.75 252.6 184.95 256 138.55 Z"/>
</g>
</defs>

<g transform="matrix( 1, 0, 0, 1, 0,0) ">
<use xlink:href="#Layer1_0_FILL"/>
</g>
</svg>
